<svg xmlns="http://www.w3.org/2000/svg" version="1.1" xmlns:xlink="http://www.w3.org/1999/xlink" width="512" height="512" x="0" y="0" viewBox="0 0 24 24" style="enable-background:new 0 0 512 512" xml:space="preserve" class=""><g><g fill="#000" fill-rule="evenodd" clip-rule="evenodd"><path d="M2.25 4.5A2.25 2.25 0 0 1 4.5 2.25h15a2.25 2.25 0 0 1 2.25 2.25V12a.75.75 0 0 1-1.5 0V4.5a.75.75 0 0 0-.75-.75h-15a.75.75 0 0 0-.75.75v15c0 .414.336.75.75.75H12a.75.75 0 0 1 0 1.5H4.5a2.25 2.25 0 0 1-2.25-2.25z" fill="#00143d" opacity="1" data-original="#000000" class=""></path><path d="M16 13.75a2.25 2.25 0 1 0 0 4.5 2.25 2.25 0 0 0 0-4.5zM12.25 16a3.75 3.75 0 1 1 7.5 0 3.75 3.75 0 0 1-7.5 0z" fill="#00143d" opacity="1" data-original="#000000" class=""></path><path d="M17.914 17.532a.75.75 0 0 1 1.054-.118l2.5 2a.75.75 0 1 1-.937 1.172l-2.5-2a.75.75 0 0 1-.117-1.054zM6.25 8A.75.75 0 0 1 7 7.25h10a.75.75 0 0 1 0 1.5H7A.75.75 0 0 1 6.25 8zM6.25 12a.75.75 0 0 1 .75-.75h4a.75.75 0 0 1 0 1.5H7a.75.75 0 0 1-.75-.75z" fill="#00143d" opacity="1" data-original="#000000" class=""></path></g></g></svg>